<svg width="48" height="50" version="1.1" xmlns="http://www.w3.org/2000/svg" viewBox="0 0 12.7 13.229168" style="max-width: 48px; max-height: 50px;">
<!-- Inline style is required for IE11, the title is required for accessibility. -->
<title>Reykjavik WordPress theme logo image</title>
<path d="M 0,3.8680543e-5 1.6084961,2.1152316 H 7.078714 c 0,0 0.800942,0.016048 1.550117,0.3436608 0.749175,0.3276133 1.3335,0.7264379 1.3335,2.0392257 0,1.339926 -0.551527,1.7325699 -1.226984,2.0490448 C 8.059891,6.8636377 7.341931,6.8794543 7.341931,6.8794543 H 5.2310685 L 10.059117,13.229167 H 12.7 L 9.151681,8.5765694 c 0.224945,-0.0694 0.228209,0.0018 0.466009,-0.109558 1.159898,-0.543451 2.442701,-1.869111 2.442701,-3.9688933 0,-2.1269198 -1.380078,-3.4479494 -2.597355,-3.98026282 C 8.24576,-0.01445832 7.078714,3.8680543e-5 7.078714,3.8680543e-5 Z"/>
</svg>
