<svg width="77" height="66" version="1.1" xmlns="http://www.w3.org/2000/svg" viewBox="0 0 20.372916 17.4625" style="max-width: 77px; max-height: 66px;">
<!-- Inline style is required for IE11, the title is required for accessibility. -->
<title>Reykjavik WordPress theme logo image</title>
<path d="m12.171 15.346-1.8521-3.7042h-6.0854v-9.525h5.9721c1.7569 0 3.1156 0.40889 4.0762 1.2267 0.97323 0.8052 1.4598 1.9438 1.4598 3.4158 0 0.99392-0.20223 1.8557-0.60669 2.5854-0.40446 0.71713-0.87001 1.3653-1.641 1.7679l2.6458 4.2333zm-4.4979-6.35h2.5515c0.7078 0 1.2513-0.24256 1.6305-0.59483 0.39182-0.35227 0.58773-0.86181 0.58773-1.5286 0-0.64164-0.19591-1.1323-0.58773-1.472-0.37918-0.35228-0.92267-0.63788-1.6305-0.63788h-2.5515z"/>
<path d="m0 0v17.462h4.2333v-2.1167h-2.1167v-13.229h2.1167v-2.1167h-2.1167z"/>
<path d="m20.373 0v17.462h-4.2333v-2.1167h2.1167v-13.229h-2.1167v-2.1167h2.1167z"/>
</svg>
